<svg width="19" height="20" viewBox="0 0 19 20" fill="none" xmlns="http://www.w3.org/2000/svg">
    <path d="M5.93701 2.3103H5.74951C5.85264 2.3103 5.93701 2.22593 5.93701 2.1228V2.3103H13.062V2.1228C13.062 2.22593 13.1464 2.3103 13.2495 2.3103H13.062V3.9978H14.7495V2.1228C14.7495 1.29546 14.0769 0.622803 13.2495 0.622803H5.74951C4.92217 0.622803 4.24951 1.29546 4.24951 2.1228V3.9978H5.93701V2.3103ZM17.7495 3.9978H1.24951C0.834668 3.9978 0.499512 4.33296 0.499512 4.7478V5.4978C0.499512 5.60093 0.583887 5.6853 0.687012 5.6853H2.10264L2.68154 17.9431C2.71904 18.7423 3.37998 19.3728 4.1792 19.3728H14.8198C15.6214 19.3728 16.28 18.7447 16.3175 17.9431L16.8964 5.6853H18.312C18.4151 5.6853 18.4995 5.60093 18.4995 5.4978V4.7478C18.4995 4.33296 18.1644 3.9978 17.7495 3.9978ZM14.6394 17.6853H4.35967L3.79248 5.6853H15.2065L14.6394 17.6853Z" fill="black" fill-opacity="0.8"/>
</svg>
