<svg width="19" height="19" viewBox="0 0 19 19" fill="none" xmlns="http://www.w3.org/2000/svg">
    <path d="M9.5 0.3125C4.42637 0.3125 0.3125 4.42637 0.3125 9.5C0.3125 14.5736 4.42637 18.6875 9.5 18.6875C14.5736 18.6875 18.6875 14.5736 18.6875 9.5C18.6875 4.42637 14.5736 0.3125 9.5 0.3125ZM13.4683 6.49971L9.14932 12.488C9.08895 12.5722 9.00937 12.6409 8.91718 12.6883C8.82499 12.7356 8.72284 12.7603 8.61919 12.7603C8.51554 12.7603 8.41339 12.7356 8.3212 12.6883C8.229 12.6409 8.14943 12.5722 8.08906 12.488L5.53174 8.94424C5.45381 8.83555 5.53174 8.68379 5.66504 8.68379H6.62686C6.83604 8.68379 7.03496 8.78428 7.15801 8.95654L8.61816 10.9827L11.842 6.51201C11.965 6.3418 12.1619 6.23926 12.3731 6.23926H13.335C13.4683 6.23926 13.5462 6.39102 13.4683 6.49971Z" fill="#52C41A"/>
</svg>
